<?xml version="1.0" encoding="UTF-8" standalone="no"?><!DOCTYPE svg PUBLIC "-//W3C//DTD SVG 1.1//EN" "http://www.w3.org/Graphics/SVG/1.1/DTD/svg11.dtd"><svg width="483px" height="109px" version="1.1" xmlns="http://www.w3.org/2000/svg" xmlns:xlink="http://www.w3.org/1999/xlink" xml:space="preserve" xmlns:serif="http://www.serif.com/" style="fill-rule:evenodd;clip-rule:evenodd;stroke-linejoin:round;stroke-miterlimit:2;">
	<defs><linearGradient id="lg" gradientUnits="userSpaceOnUse" x1="0" y1="54.5" x2="483" y2="54.5" gradientTransform="rotate(-13 241.5 54.5)"><stop offset="0" stop-color="#0d7e8c"/><stop offset="1" stop-color="#1a5fb4"/></linearGradient></defs>
	<path fill="url(#lg)" d="M47.098,29C47.098,29 36.873,80.831 34.968,87.194C34.58,88.444 34.162,89.685 33.716,90.915C31.642,96.621 29.049,100.718 25.937,103.208C22.825,105.697 18.814,106.942 13.904,106.942C11.069,106.942 8.493,106.51 6.177,105.645C3.86,104.781 2.218,103.415 1.249,101.548C3.186,100.58 4.845,99.508 6.228,98.333C7.611,97.157 8.856,95.497 9.963,93.354C11.069,91.21 12.141,88.202 13.178,84.329C14.215,80.457 24.578,29 24.578,29L17.253,29L18.186,24.332L25.447,24.332L27.003,18.109C28.11,13.683 30.063,10.363 32.865,8.151C35.665,5.938 38.932,4.451 42.666,3.69C46.4,2.93 50.204,2.549 54.076,2.549C56.082,2.549 58.208,2.653 60.456,2.86C62.703,3.068 64.83,3.465 66.835,4.053C68.84,4.641 70.483,5.505 71.763,6.646C73.042,7.787 73.681,9.292 73.681,11.159C73.681,13.717 72.558,15.55 70.311,16.656C68.063,17.763 65.625,18.316 62.997,18.316C61.96,18.316 60.871,18.229 59.73,18.056C58.589,17.884 57.499,17.555 56.462,17.071C56.946,16.241 57.309,15.152 57.552,13.803C57.794,12.455 57.914,11.332 57.914,10.433C57.914,9.464 57.741,8.669 57.396,8.047C57.05,7.424 56.393,7.113 55.425,7.113C53.696,7.113 52.365,8.047 51.432,9.914C50.498,11.781 49.754,14.236 49.201,17.279L47.956,24.332L57.396,24.332L56.773,29L47.098,29Z"/>
	<path fill="url(#lg)" id="_1" serif:id="1" d="M76.322,62.442C73.872,62.442 71.597,62.142 69.497,61.542C67.397,60.942 65.572,59.992 64.022,58.692C62.472,57.392 61.272,55.717 60.422,53.667C59.572,51.617 59.147,49.142 59.147,46.242C59.103,42.757 59.675,39.291 60.835,36.004C61.96,32.929 63.585,30.292 65.71,28.092C67.835,25.892 70.397,24.192 73.397,22.992C76.397,21.792 79.772,21.192 83.522,21.192C86.022,21.192 88.31,21.492 90.385,22.092C92.46,22.692 94.247,23.629 95.747,24.904C97.247,26.179 98.422,27.817 99.272,29.817C100.122,31.817 100.547,34.242 100.547,37.092C100.547,40.842 99.985,44.254 98.86,47.329C97.735,50.404 96.11,53.079 93.985,55.354C91.86,57.629 89.31,59.379 86.335,60.604C83.36,61.829 80.022,62.442 76.322,62.442ZM77.372,57.942C78.472,57.942 79.46,57.292 80.335,55.992C81.21,54.692 81.947,52.979 82.547,50.854C83.147,48.729 83.647,46.417 84.047,43.917C84.447,41.417 84.747,38.942 84.947,36.492C85.147,34.042 85.247,31.867 85.247,29.967C85.247,28.667 85.047,27.629 84.647,26.854C84.247,26.079 83.497,25.692 82.397,25.692C81.247,25.692 80.235,26.329 79.36,27.604C78.485,28.879 77.735,30.567 77.11,32.667C76.485,34.767 75.985,37.067 75.61,39.567C75.235,42.067 74.96,44.542 74.785,46.992C74.61,49.442 74.522,51.667 74.522,53.667C74.522,54.917 74.722,55.942 75.122,56.742C75.522,57.542 76.272,57.942 77.372,57.942Z" style="fill-rule:nonzero;"/>
	<path fill="url(#lg)" id="_2" serif:id="2" d="M123.772,37.692L119.272,60.942L102.622,62.592L110.497,22.692L123.997,21.042L122.722,28.542C124.122,25.792 126.035,23.879 128.46,22.804C130.885,21.729 133.672,21.192 136.822,21.192C140.172,21.192 142.847,21.829 144.847,23.104C146.847,24.379 147.847,26.642 147.847,29.892C147.847,31.142 147.71,32.529 147.435,34.054C147.16,35.579 146.822,37.167 146.422,38.817C146.022,40.467 145.635,42.079 145.26,43.654C144.885,45.229 144.56,46.717 144.285,48.117C144.01,49.517 143.872,50.742 143.872,51.792C143.872,53.092 144.172,54.142 144.772,54.942C145.372,55.742 146.347,56.217 147.697,56.367C147.047,58.467 145.672,60.004 143.572,60.979C141.472,61.954 139.297,62.442 137.047,62.442C134.297,62.442 132.022,61.754 130.222,60.379C128.422,59.004 127.522,56.942 127.522,54.192C127.522,53.092 127.672,51.754 127.972,50.179C128.272,48.604 128.635,46.929 129.06,45.154C129.485,43.379 129.897,41.592 130.297,39.792C130.697,37.992 131.047,36.267 131.347,34.617C131.647,32.967 131.797,31.517 131.797,30.267C131.797,29.517 131.697,28.779 131.497,28.054C131.297,27.329 130.697,26.967 129.697,26.967C128.497,26.967 127.522,27.554 126.772,28.729C126.022,29.904 125.41,31.317 124.935,32.967C124.46,34.617 124.072,36.192 123.772,37.692Z" style="fill-rule:nonzero;"/>
	<path fill="url(#lg)" id="_3" serif:id="3" d="M157.997,37.317L160.247,26.067L156.047,26.067L156.347,23.817C159.447,22.917 162.56,21.679 165.685,20.104C168.81,18.529 171.922,16.617 175.022,14.367L178.922,14.367L177.047,22.692L182.897,22.692L182.222,26.067L176.522,26.067L172.322,48.342C172.272,48.992 172.197,49.629 172.097,50.254C171.997,50.879 171.947,51.492 171.947,52.092C171.947,54.042 172.435,55.267 173.41,55.767C174.038,56.073 174.731,56.225 175.429,56.208C176.025,56.202 176.618,56.129 177.197,55.992C176.397,57.842 175.347,59.229 174.047,60.154C172.747,61.079 171.335,61.692 169.81,61.992C168.285,62.292 166.797,62.442 165.347,62.442C162.597,62.442 160.26,61.742 158.335,60.342C156.41,58.942 155.447,56.867 155.447,54.117C155.447,53.117 155.547,51.879 155.747,50.404C155.947,48.929 156.185,47.367 156.46,45.717C156.735,44.067 157.022,42.492 157.322,40.992C157.622,39.492 157.847,38.267 157.997,37.317Z" style="fill-rule:nonzero;"/>
	<path fill="url(#lg)" d="M247.349,29C247.349,29 237.125,80.831 235.22,87.194C234.831,88.444 234.414,89.685 233.968,90.915C231.893,96.621 229.3,100.718 226.188,103.208C223.076,105.697 219.066,106.942 214.156,106.942C211.321,106.942 208.745,106.51 206.429,105.645C204.112,104.781 202.469,103.415 201.501,101.548C203.437,100.58 205.097,99.508 206.48,98.333C207.863,97.157 209.108,95.497 210.214,93.354C211.321,91.21 212.392,88.202 213.43,84.329C214.467,80.457 224.829,29 224.829,29L217.504,29L218.438,24.332L225.699,24.332L227.255,18.109C228.361,13.683 230.315,10.363 233.116,8.151C235.916,5.938 239.184,4.451 242.918,3.69C246.652,2.93 250.455,2.549 254.328,2.549C256.333,2.549 258.46,2.653 260.708,2.86C262.955,3.068 265.081,3.465 267.087,4.053C269.092,4.641 270.735,5.505 272.014,6.646C273.293,7.787 273.933,9.292 273.933,11.159C273.933,13.717 272.809,15.55 270.562,16.656C268.314,17.763 265.876,18.316 263.249,18.316C262.211,18.316 261.122,18.229 259.982,18.056C258.84,17.884 257.751,17.555 256.714,17.071C257.198,16.241 257.561,15.152 257.804,13.803C258.045,12.455 258.166,11.332 258.166,10.433C258.166,9.464 257.993,8.669 257.647,8.047C257.301,7.424 256.645,7.113 255.676,7.113C253.948,7.113 252.617,8.047 251.684,9.914C250.75,11.781 250.006,14.236 249.453,17.279L248.208,24.332L257.647,24.332L257.025,29L247.349,29Z"/>
	<path fill="url(#lg)" id="_6" serif:id="6" d="M278.472,62.442C275.822,62.442 273.597,61.733 271.797,60.314C269.997,58.895 269.097,56.716 269.097,53.775C269.097,52.434 269.247,50.693 269.547,48.552C269.847,46.411 270.235,44.103 270.71,41.627C271.185,39.15 271.685,36.687 272.21,34.236C272.735,31.786 273.222,29.542 273.672,27.504C274.122,25.467 274.485,23.829 274.76,22.591C274.911,21.994 275.028,21.388 275.109,20.777C275.114,20.762 275.109,20.744 275.097,20.734C275.647,17.742 276.035,15.381 276.26,13.653C276.485,11.925 276.597,10.442 276.597,9.204C276.597,8.327 276.547,7.527 276.447,6.805C276.347,6.083 276.222,5.438 276.072,4.871C277.372,4.2 278.847,3.645 280.497,3.206C282.147,2.768 283.747,2.549 285.297,2.549C287.297,2.549 289.06,3.039 290.585,4.019C292.11,5 292.872,6.754 292.872,9.281C292.872,9.952 292.822,10.79 292.722,11.796C292.622,12.802 292.485,13.976 292.31,15.317C292.135,16.658 291.897,18.154 291.597,19.805C291.297,21.456 290.947,23.262 290.547,25.222C289.597,29.968 288.81,33.875 288.185,36.945C287.56,40.014 287.06,42.478 286.685,44.335C286.31,46.192 286.035,47.598 285.86,48.552C285.685,49.506 285.572,50.203 285.522,50.641C285.472,51.08 285.447,51.454 285.447,51.764C285.447,52.795 285.747,53.762 286.347,54.665C286.947,55.568 287.922,56.071 289.272,56.174C288.872,57.619 288.097,58.805 286.947,59.734C285.797,60.662 284.485,61.346 283.01,61.784C281.535,62.223 280.022,62.442 278.472,62.442Z" style="fill-rule:nonzero;"/>
	<path fill="url(#lg)" id="_7" serif:id="7" d="M301.197,22.692C301.197,22.692 317.922,21.042 317.922,21.042C316.922,26.542 316.06,31.204 315.335,35.029C314.61,38.854 314.01,42.017 313.535,44.517C313.06,47.017 312.71,49.042 312.485,50.592C312.26,52.142 312.147,53.392 312.147,54.342C312.147,54.892 312.185,55.417 312.26,55.917C312.335,56.417 312.51,56.817 312.785,57.117C313.06,57.417 313.522,57.567 314.172,57.567C315.422,57.567 316.447,57.092 317.247,56.142C318.047,55.192 318.672,54.029 319.122,52.654C319.572,51.279 319.897,50.017 320.097,48.867L324.597,22.692L341.247,21.042L335.997,48.942C335.947,49.342 335.872,49.842 335.772,50.442C335.672,51.042 335.622,51.592 335.622,52.092C335.622,53.092 335.922,54.029 336.522,54.904C337.122,55.779 338.097,56.267 339.447,56.367C339.047,57.767 338.26,58.917 337.085,59.817C335.91,60.717 334.597,61.379 333.147,61.804C331.697,62.229 330.297,62.442 328.947,62.442C327.247,62.442 325.61,62.092 324.035,61.392C322.46,60.692 321.397,59.617 320.847,58.167C319.447,59.517 317.635,60.567 315.41,61.317C313.185,62.067 310.822,62.442 308.322,62.442C306.222,62.442 304.285,62.129 302.51,61.504C300.735,60.879 299.322,59.842 298.272,58.392C297.222,56.942 296.697,54.967 296.697,52.467C296.697,51.367 296.847,49.679 297.147,47.404C297.447,45.129 297.935,41.992 298.61,37.992C299.343,33.65 300.077,29.307 300.812,24.965C300.941,24.207 301.069,23.45 301.197,22.692Z" style="fill-rule:nonzero;"/>
	<path fill="url(#lg)" id="_8" serif:id="8" d="M353.522,43.767L358.697,41.442L355.097,33.117C354.547,31.817 353.91,30.629 353.185,29.554C352.46,28.479 351.447,27.867 350.147,27.717C350.847,25.517 352.197,23.879 354.197,22.804C356.197,21.729 358.347,21.192 360.647,21.192C362.997,21.192 364.822,21.692 366.122,22.692C367.422,23.692 368.497,25.167 369.347,27.117L373.097,35.667C374.447,35.267 375.297,34.454 375.647,33.229C375.997,32.004 376.172,30.692 376.172,29.292C376.172,28.092 376.022,26.967 375.722,25.917C375.422,24.867 374.922,23.892 374.222,22.992C375.222,22.392 376.322,21.942 377.522,21.642C378.722,21.342 379.922,21.192 381.122,21.192C383.472,21.192 385.285,21.742 386.56,22.842C387.835,23.942 388.472,25.667 388.472,28.017C388.472,29.767 388.122,31.317 387.422,32.667C386.722,34.017 385.747,35.192 384.497,36.192C383.247,37.192 381.772,38.042 380.072,38.742L375.047,40.917L378.872,50.517C379.422,51.917 380.097,53.142 380.897,54.192C381.697,55.242 382.672,55.817 383.822,55.917C383.172,58.067 381.847,59.692 379.847,60.792C377.847,61.892 375.672,62.442 373.322,62.442C371.772,62.442 370.46,62.242 369.385,61.842C368.31,61.442 367.397,60.804 366.647,59.929C365.897,59.054 365.222,57.917 364.622,56.517L360.797,46.767C359.247,47.217 358.197,48.192 357.647,49.692C357.097,51.192 356.822,52.742 356.822,54.342C356.822,55.492 356.972,56.604 357.272,57.679C357.572,58.754 358.097,59.742 358.847,60.642C356.747,61.842 354.447,62.442 351.947,62.442C349.547,62.442 347.71,61.879 346.435,60.754C345.16,59.629 344.522,57.892 344.522,55.542C344.522,53.592 344.91,51.867 345.685,50.367C346.46,48.867 347.522,47.567 348.872,46.467C350.222,45.367 351.772,44.467 353.522,43.767Z" style="fill-rule:nonzero;"/>
	<path fill="url(#lg)" id="_10" serif:id="10" d="M407.709,89.206C408.868,85.814 420.597,26.855 420.597,26.855L442.574,24.681C442.574,24.681 429.602,88.844 427.746,93.356C425.89,97.868 423.536,101.261 420.686,103.533C417.835,105.806 414.222,106.942 409.846,106.942C406.863,106.942 404.161,106.366 401.742,105.212C399.322,104.06 397.714,102.068 396.918,99.235C399.57,99.104 401.742,98.247 403.433,96.666C405.123,95.086 406.548,92.599 407.709,89.206ZM433.227,19.148C429.912,19.148 427.161,18.457 424.973,17.074C422.785,15.69 421.691,13.681 421.691,11.046C421.691,8.346 422.851,6.254 425.172,4.772C427.492,3.29 430.31,2.549 433.624,2.549C436.873,2.549 439.525,3.274 441.58,4.723C443.635,6.172 444.663,8.214 444.663,10.849C444.663,13.549 443.569,15.608 441.381,17.023C439.193,18.44 436.475,19.148 433.227,19.148Z" style="fill-rule:nonzero;"/>
	<path fill="url(#lg)" id="_11" serif:id="11" d="M459.542,62.442C457.407,62.442 455.308,62.305 453.247,62.032C451.186,61.759 449.299,61.3 447.585,60.654C445.872,60.008 444.518,59.139 443.525,58.047C442.531,56.954 442.035,55.588 442.035,53.949C442.084,52.509 442.445,51.292 443.116,50.299C443.786,49.305 444.754,48.536 446.021,47.989C447.287,47.443 448.814,47.17 450.602,47.17C451.695,47.17 452.837,47.294 454.029,47.542C455.221,47.791 456.215,48.163 457.009,48.66C456.761,49.653 456.612,50.547 456.562,51.342C456.513,52.136 456.488,53.055 456.488,54.098C456.587,55.34 457.022,56.358 457.792,57.153C458.561,57.947 459.617,58.345 460.958,58.345C462.348,58.345 463.454,58.034 464.273,57.413C465.093,56.792 465.502,56.01 465.502,55.067C465.504,55.016 465.505,54.965 465.505,54.915C465.448,53.562 464.808,52.299 463.752,51.453C462.535,50.336 461.02,49.231 459.207,48.138C457.394,47.046 455.569,45.903 453.731,44.711C452.291,43.718 450.987,42.65 449.82,41.508C448.653,40.365 447.746,39.111 447.101,37.745C446.455,36.379 446.132,34.877 446.132,33.238C446.182,31.202 446.803,29.426 447.995,27.911C449.187,26.397 450.764,25.155 452.726,24.186C454.687,23.218 456.873,22.498 459.282,22.026C461.69,21.554 464.111,21.318 466.545,21.318C469.028,21.318 471.462,21.604 473.846,22.175C476.23,22.746 478.192,23.665 479.732,24.931C481.206,26.122 482.036,27.941 481.969,29.835C481.969,29.902 481.968,29.968 481.967,30.035C481.917,32.22 481.172,33.834 479.732,34.877C478.291,35.92 476.354,36.442 473.921,36.442C472.878,36.442 471.798,36.305 470.68,36.032C469.563,35.759 468.557,35.374 467.663,34.877C467.861,34.331 468.023,33.698 468.147,32.977C468.271,32.257 468.358,31.525 468.408,30.78C468.457,29.141 468.134,27.8 467.439,26.757C466.744,25.714 465.676,25.167 464.236,25.118C463.292,25.118 462.435,25.403 461.666,25.974C460.896,26.546 460.486,27.402 460.436,28.545C460.434,28.602 460.432,28.659 460.432,28.716C460.472,29.894 460.952,31.017 461.777,31.86C462.721,32.928 463.962,33.971 465.502,34.989C467.042,36.007 468.656,37.013 470.345,38.006C472.133,39.049 473.71,40.129 475.076,41.246C476.441,42.364 477.521,43.606 478.316,44.971C479.085,46.339 479.472,47.887 479.438,49.455C479.438,49.563 479.436,49.67 479.434,49.777C479.384,52.161 478.614,54.297 477.124,56.184C475.634,58.071 473.424,59.574 470.494,60.691C467.563,61.809 463.913,62.392 459.542,62.442Z" style="fill-rule:nonzero;"/>
</svg>