<?xml version="1.0" encoding="UTF-8" standalone="no"?><!DOCTYPE svg PUBLIC "-//W3C//DTD SVG 1.1//EN" "http://www.w3.org/Graphics/SVG/1.1/DTD/svg11.dtd">
<svg width="112px" height="112px" version="1.1" xmlns="http://www.w3.org/2000/svg" xmlns:xlink="http://www.w3.org/1999/xlink" xml:space="preserve" xmlns:serif="http://www.serif.com/" style="fill-rule:evenodd;clip-rule:evenodd;stroke-linejoin:round;stroke-miterlimit:2;">
	<rect height="112" width="112" rx="14" ry="14" style="fill:#cceeff;"/>
	<path fill="#00626e" transform="translate(20, 2)" d="M47.098,29C47.098,29 36.873,80.831 34.968,87.194C34.58,88.444 34.162,89.685 33.716,90.915C31.642,96.621 29.049,100.718 25.937,103.208C22.825,105.697 18.814,106.942 13.904,106.942C11.069,106.942 8.493,106.51 6.177,105.645C3.86,104.781 2.218,103.415 1.249,101.548C3.186,100.58 4.845,99.508 6.228,98.333C7.611,97.157 8.856,95.497 9.963,93.354C11.069,91.21 12.141,88.202 13.178,84.329C14.215,80.457 24.578,29 24.578,29L17.253,29L18.186,24.332L25.447,24.332L27.003,18.109C28.11,13.683 30.063,10.363 32.865,8.151C35.665,5.938 38.932,4.451 42.666,3.69C46.4,2.93 50.204,2.549 54.076,2.549C56.082,2.549 58.208,2.653 60.456,2.86C62.703,3.068 64.83,3.465 66.835,4.053C68.84,4.641 70.483,5.505 71.763,6.646C73.042,7.787 73.681,9.292 73.681,11.159C73.681,13.717 72.558,15.55 70.311,16.656C68.063,17.763 65.625,18.316 62.997,18.316C61.96,18.316 60.871,18.229 59.73,18.056C58.589,17.884 57.499,17.555 56.462,17.071C56.946,16.241 57.309,15.152 57.552,13.803C57.794,12.455 57.914,11.332 57.914,10.433C57.914,9.464 57.741,8.669 57.396,8.047C57.05,7.424 56.393,7.113 55.425,7.113C53.696,7.113 52.365,8.047 51.432,9.914C50.498,11.781 49.754,14.236 49.201,17.279L47.956,24.332L57.396,24.332L56.773,29L47.098,29Z"/>
</svg>